<svg width="247" height="247" viewBox="0 0 247 247" fill="none" xmlns="http://www.w3.org/2000/svg">
<path d="M118.344 185.076L121.298 186.04L122.458 183.158L124.101 185.794L126.843 184.333L126.407 187.409L129.446 188.051L127.135 190.127L129.05 192.573L125.946 192.677L125.841 195.782L123.395 193.867L121.319 196.178L120.677 193.138L117.601 193.574L119.063 190.833L116.426 189.19L119.308 188.03L118.344 185.076Z" fill="white"/>
<circle cx="123.037" cy="123.037" r="86.5" transform="rotate(-45 123.037 123.037)" stroke="white"/>
<path d="M102.704 103.747L122.515 115.433L142.326 103.747L130.64 123.558L142.326 143.369L122.515 131.683L102.704 143.369L114.39 123.558L102.704 103.747Z" fill="white" fill-opacity="0.75"/>
<path d="M108.604 185.774L101.404 192.974L98.8871 190.457C98.3856 189.955 98.0587 189.455 97.9063 188.956C97.7517 188.459 97.7399 187.986 97.8712 187.536C98.0001 187.088 98.2403 186.688 98.5918 186.337C98.9012 186.028 99.2117 185.827 99.5234 185.736C99.8328 185.642 100.135 185.626 100.43 185.687C100.723 185.745 101.001 185.849 101.264 185.999L101.334 185.929C101.128 185.695 100.984 185.396 100.901 185.033C100.819 184.669 100.835 184.281 100.947 183.869C101.06 183.457 101.306 183.06 101.685 182.681C102.046 182.32 102.453 182.077 102.905 181.953C103.358 181.829 103.845 181.859 104.368 182.045C104.89 182.23 105.435 182.606 106.002 183.173L108.604 185.774ZM106.959 185.676L105.229 183.946C104.66 183.377 104.145 183.083 103.686 183.064C103.222 183.045 102.831 183.194 102.515 183.51C102.271 183.754 102.108 184.041 102.026 184.372C101.942 184.705 101.953 185.048 102.058 185.402C102.161 185.758 102.37 186.093 102.684 186.407L104.456 188.179L106.959 185.676ZM103.696 188.938L102.079 187.321C101.817 187.059 101.528 186.874 101.214 186.766C100.898 186.656 100.584 186.632 100.272 186.695C99.9582 186.756 99.6746 186.913 99.4215 187.167C99.1051 187.483 98.9469 187.861 98.9469 188.302C98.9446 188.745 99.1824 189.205 99.6605 189.684L101.306 191.329L103.696 188.938ZM96.6671 178.253L93.4751 181.445L92.6455 180.615L98.0452 175.216L98.8748 176.045L97.9608 176.959L98.0171 177.016C98.4178 176.868 98.8479 176.832 99.3072 176.907C99.7642 176.984 100.197 177.227 100.604 177.634C100.942 177.972 101.168 178.346 101.283 178.756C101.395 179.168 101.377 179.6 101.227 180.049C101.074 180.502 100.768 180.958 100.309 181.417L96.8781 184.848L96.0484 184.018L99.4232 180.644C99.817 180.25 100.021 179.826 100.035 179.371C100.047 178.914 99.8803 178.513 99.5357 178.169C99.3295 177.962 99.067 177.805 98.7483 177.698C98.4272 177.588 98.085 177.569 97.7218 177.641C97.3562 177.712 97.0046 177.916 96.6671 178.253ZM88.5104 174.062L89.4666 174.596C89.3893 174.767 89.3377 174.957 89.3119 175.166C89.2815 175.374 89.3049 175.595 89.3823 175.827C89.4596 176.059 89.619 176.295 89.8604 176.537C90.1908 176.867 90.5424 177.066 90.915 177.134C91.2829 177.202 91.5829 177.12 91.8149 176.888C92.0212 176.682 92.1091 176.444 92.0786 176.175C92.0481 175.905 91.9134 175.571 91.6743 175.173L91.0697 174.174C90.7041 173.574 90.5236 173.035 90.5283 172.557C90.5306 172.081 90.7205 171.655 91.0978 171.278C91.4072 170.968 91.7728 170.781 92.1946 170.715C92.6141 170.647 93.0524 170.701 93.5094 170.877C93.9664 171.053 94.4047 171.35 94.8242 171.77C95.3749 172.32 95.7112 172.896 95.8331 173.496C95.955 174.096 95.8343 174.673 95.471 175.229L94.4867 174.638C94.7023 174.273 94.7785 173.913 94.7152 173.559C94.6496 173.203 94.4468 172.855 94.107 172.515C93.7203 172.128 93.3313 171.903 92.9399 171.84C92.5438 171.777 92.2298 171.861 91.9977 172.093C91.8103 172.281 91.7189 172.503 91.7235 172.761C91.7259 173.021 91.8314 173.319 92.0399 173.654L92.729 174.765C93.1063 175.377 93.2879 175.921 93.2739 176.4C93.2551 176.878 93.0594 177.303 92.6868 177.676C92.3821 177.98 92.027 178.164 91.6216 178.228C91.2138 178.289 90.7943 178.237 90.3631 178.073C89.9295 177.907 89.5229 177.633 89.1432 177.254C88.6089 176.719 88.3065 176.183 88.2362 175.644C88.1636 175.102 88.255 174.575 88.5104 174.062ZM91.3535 168.524L85.9538 173.924L85.1242 173.094L90.5239 167.694L91.3535 168.524ZM84.632 174.402C84.7937 174.564 84.8781 174.758 84.8851 174.985C84.8898 175.21 84.8148 175.4 84.6601 175.555C84.5055 175.71 84.3156 175.785 84.0906 175.78C83.8633 175.773 83.6688 175.689 83.5071 175.527C83.3454 175.365 83.2622 175.172 83.2575 174.947C83.2504 174.719 83.3243 174.528 83.4789 174.374C83.6336 174.219 83.8246 174.145 84.052 174.152C84.277 174.157 84.4703 174.24 84.632 174.402ZM84.9264 168.594L88.1747 165.345L89.0043 166.175L83.6046 171.575L82.8031 170.773L83.6468 169.929L83.5765 169.859C83.1757 170.007 82.7633 170.035 82.3391 169.943C81.9125 169.854 81.4954 169.606 81.0876 169.198C80.722 168.833 80.477 168.438 80.3528 168.013C80.2263 167.592 80.238 167.153 80.388 166.699C80.5356 166.246 80.8391 165.791 81.2985 165.331L84.7296 161.9L85.5592 162.73L82.1844 166.105C81.7602 166.529 81.5399 166.969 81.5235 167.426C81.5047 167.886 81.6875 168.308 82.0719 168.692C82.3367 168.957 82.6308 169.136 82.9543 169.23C83.2753 169.321 83.6058 169.317 83.9456 169.216C84.2854 169.115 84.6124 168.908 84.9264 168.594ZM81.0621 158.008C81.5824 158.528 81.9163 159.092 82.064 159.699C82.2069 160.306 82.173 160.918 81.962 161.537C81.7464 162.156 81.3621 162.742 80.809 163.295C80.2559 163.848 79.6676 164.235 79.0442 164.455C78.4161 164.675 77.8021 164.722 77.2021 164.596C76.5975 164.469 76.0514 164.162 75.5639 163.675C75.2827 163.393 75.0518 163.069 74.8714 162.701C74.6909 162.333 74.5937 161.931 74.5796 161.495C74.5632 161.061 74.6604 160.606 74.8714 160.127C75.0823 159.649 75.4397 159.158 75.9436 158.654L76.2951 158.303L80.4574 162.465L79.7403 163.182L76.4217 159.864C76.117 160.168 75.9061 160.501 75.7889 160.862C75.6694 161.221 75.6518 161.581 75.7362 161.941C75.8182 162.3 76.0092 162.629 76.3092 162.929C76.6396 163.26 77.0076 163.464 77.413 163.541C77.8138 163.618 78.2087 163.591 78.5977 163.46C78.9868 163.329 79.3301 163.114 79.6278 162.817L80.1059 162.339C80.5137 161.931 80.789 161.515 80.932 161.091C81.0703 160.666 81.0867 160.254 80.9812 159.853C80.8734 159.455 80.6519 159.088 80.3168 158.753C80.0988 158.535 79.8715 158.369 79.6348 158.254C79.3934 158.139 79.1462 158.079 78.893 158.074C78.6376 158.072 78.381 158.13 78.1232 158.247L77.5466 157.22C77.9029 157.033 78.2837 156.935 78.6891 156.928C79.0923 156.924 79.4977 157.01 79.9055 157.189C80.3109 157.369 80.6965 157.642 81.0621 158.008ZM69.4365 154.988L70.3927 155.522C70.3154 155.693 70.2638 155.883 70.238 156.092C70.2075 156.3 70.231 156.521 70.3083 156.753C70.3857 156.985 70.545 157.221 70.7864 157.463C71.1169 157.793 71.4684 157.992 71.8411 158.06C72.209 158.128 72.509 158.046 72.741 157.814C72.9473 157.608 73.0351 157.37 73.0047 157.101C72.9742 156.831 72.8394 156.497 72.6004 156.099L71.9957 155.1C71.6301 154.5 71.4497 153.961 71.4544 153.483C71.4567 153.008 71.6465 152.581 72.0239 152.204C72.3332 151.894 72.6988 151.707 73.1207 151.641C73.5402 151.573 73.9785 151.627 74.4355 151.803C74.8925 151.979 75.3307 152.276 75.7502 152.696C76.301 153.247 76.6373 153.822 76.7592 154.422C76.881 155.022 76.7603 155.6 76.3971 156.155L75.4128 155.564C75.6284 155.199 75.7045 154.839 75.6413 154.485C75.5756 154.129 75.3729 153.781 75.0331 153.441C74.6464 153.054 74.2573 152.829 73.866 152.766C73.4699 152.703 73.1558 152.787 72.9238 153.019C72.7363 153.207 72.6449 153.429 72.6496 153.687C72.652 153.947 72.7574 154.245 72.966 154.58L73.655 155.691C74.0324 156.303 74.214 156.848 74.1999 157.326C74.1812 157.804 73.9855 158.229 73.6128 158.602C73.3082 158.906 72.9531 159.09 72.5477 159.154C72.1399 159.215 71.7204 159.163 71.2891 158.999C70.8556 158.833 70.4489 158.56 70.0693 158.18C69.5349 157.646 69.2326 157.109 69.1623 156.57C69.0896 156.028 69.181 155.501 69.4365 154.988ZM64.2644 149.816L65.2206 150.35C65.1433 150.521 65.0917 150.711 65.0659 150.92C65.0355 151.128 65.0589 151.349 65.1362 151.581C65.2136 151.813 65.3729 152.049 65.6143 152.291C65.9448 152.621 66.2963 152.82 66.669 152.888C67.0369 152.956 67.3369 152.874 67.5689 152.642C67.7752 152.436 67.863 152.198 67.8326 151.929C67.8021 151.659 67.6673 151.325 67.4283 150.927L66.8236 149.928C66.458 149.328 66.2776 148.789 66.2823 148.311C66.2846 147.835 66.4744 147.409 66.8518 147.032C67.1611 146.722 67.5267 146.535 67.9486 146.469C68.3681 146.401 68.8064 146.455 69.2634 146.631C69.7204 146.807 70.1586 147.104 70.5781 147.524C71.1289 148.074 71.4652 148.65 71.5871 149.25C71.7089 149.85 71.5882 150.427 71.225 150.983L70.2407 150.392C70.4563 150.027 70.5324 149.667 70.4692 149.313C70.4035 148.957 70.2008 148.609 69.861 148.269C69.4743 147.882 69.0852 147.657 68.6939 147.594C68.2978 147.531 67.9837 147.615 67.7517 147.847C67.5642 148.035 67.4728 148.257 67.4775 148.515C67.4799 148.775 67.5853 149.073 67.7939 149.408L68.4829 150.519C68.8603 151.131 69.0419 151.675 69.0278 152.154C69.0091 152.632 68.8134 153.057 68.4407 153.43C68.1361 153.734 67.781 153.918 67.3756 153.982C66.9678 154.043 66.5483 153.991 66.117 153.827C65.6835 153.661 65.2768 153.387 64.8972 153.008C64.3628 152.473 64.0605 151.937 63.9902 151.398C63.9175 150.856 64.0089 150.329 64.2644 149.816Z" fill="white"/>
<path d="M142.683 66.5548L149.882 59.3552L152.399 61.8723C152.901 62.3738 153.228 62.8742 153.38 63.3734C153.535 63.8702 153.547 64.3436 153.415 64.7936C153.287 65.2412 153.046 65.6408 152.695 65.9924C152.385 66.3017 152.075 66.5021 151.763 66.5935C151.454 66.6873 151.151 66.7037 150.856 66.6427C150.563 66.5841 150.286 66.4799 150.023 66.3299L149.953 66.4002C150.159 66.6345 150.303 66.9333 150.385 67.2966C150.467 67.6599 150.452 68.0477 150.339 68.4602C150.227 68.8727 149.981 69.2688 149.601 69.6484C149.24 70.0094 148.834 70.2519 148.381 70.3761C147.929 70.5004 147.442 70.4699 146.919 70.2847C146.396 70.0996 145.851 69.7234 145.284 69.1563L142.683 66.5548ZM144.328 66.6533L146.058 68.3829C146.627 68.9524 147.142 69.2465 147.601 69.2653C148.065 69.284 148.455 69.1352 148.772 68.8188C149.015 68.5751 149.178 68.288 149.26 67.9575C149.345 67.6247 149.334 67.2814 149.229 66.9275C149.125 66.5713 148.917 66.2361 148.603 65.9221L146.831 64.1503L144.328 66.6533ZM147.59 63.3909L149.207 65.0081C149.47 65.2705 149.758 65.4557 150.072 65.5635C150.389 65.6736 150.703 65.6971 151.014 65.6338C151.328 65.5729 151.612 65.4158 151.865 65.1627C152.182 64.8463 152.34 64.4678 152.34 64.0272C152.342 63.5843 152.104 63.1238 151.626 62.6457L149.981 61.0004L147.59 63.3909ZM154.619 74.0761L157.812 70.8841L158.641 71.7138L153.241 77.1135L152.412 76.2838L153.326 75.3698L153.27 75.3136C152.869 75.4612 152.439 75.4976 151.979 75.4226C151.522 75.3452 151.09 75.1027 150.682 74.6949C150.345 74.3574 150.119 73.9836 150.004 73.5734C149.891 73.161 149.91 72.7297 150.06 72.2798C150.212 71.8274 150.518 71.3716 150.977 70.9122L154.409 67.4812L155.238 68.3108L151.863 71.6856C151.47 72.0794 151.266 72.5036 151.252 72.9582C151.24 73.4152 151.406 73.816 151.751 74.1605C151.957 74.3668 152.22 74.5238 152.538 74.6316C152.859 74.7417 153.202 74.7605 153.565 74.6878C153.93 74.6175 154.282 74.4136 154.619 74.0761ZM162.776 78.2674L161.82 77.7331C161.897 77.562 161.949 77.3722 161.975 77.1636C162.005 76.955 161.982 76.7347 161.904 76.5027C161.827 76.2707 161.668 76.034 161.426 75.7926C161.096 75.4621 160.744 75.2629 160.372 75.1949C160.004 75.127 159.704 75.209 159.472 75.441C159.265 75.6473 159.178 75.8851 159.208 76.1547C159.238 76.4242 159.373 76.7581 159.612 77.1566L160.217 78.1549C160.583 78.7549 160.763 79.2939 160.758 79.772C160.756 80.2478 160.566 80.6743 160.189 81.0517C159.879 81.361 159.514 81.5485 159.092 81.6141C158.672 81.6821 158.234 81.6282 157.777 81.4524C157.32 81.2767 156.882 80.979 156.462 80.5595C155.912 80.0088 155.575 79.4334 155.454 78.8334C155.332 78.2335 155.452 77.6557 155.816 77.1003L156.8 77.6909C156.584 78.0565 156.508 78.4163 156.571 78.7701C156.637 79.1264 156.84 79.4744 157.18 79.8142C157.566 80.2009 157.955 80.4259 158.347 80.4892C158.743 80.5525 159.057 80.4681 159.289 80.2361C159.476 80.0486 159.568 79.8259 159.563 79.5682C159.561 79.308 159.455 79.0104 159.247 78.6752L158.558 77.5643C158.18 76.9527 157.999 76.4078 158.013 75.9297C158.032 75.4516 158.227 75.0262 158.6 74.6536C158.905 74.3489 159.26 74.1649 159.665 74.1016C160.073 74.0407 160.492 74.0923 160.924 74.2563C161.357 74.4227 161.764 74.6957 162.143 75.0754C162.678 75.6098 162.98 76.1465 163.05 76.6855C163.123 77.2269 163.032 77.7542 162.776 78.2674ZM159.933 83.8051L165.333 78.4054L166.162 79.2351L160.763 84.6348L159.933 83.8051ZM166.655 77.9273C166.493 77.7656 166.409 77.5711 166.401 77.3438C166.397 77.1188 166.472 76.9289 166.626 76.7743C166.781 76.6196 166.971 76.5446 167.196 76.5493C167.423 76.5563 167.618 76.6407 167.78 76.8024C167.941 76.9641 168.024 77.1574 168.029 77.3824C168.036 77.6098 167.962 77.8008 167.808 77.9554C167.653 78.1101 167.462 78.1839 167.235 78.1769C167.01 78.1722 166.816 78.089 166.655 77.9273ZM166.36 83.7357L163.112 86.984L162.282 86.1543L167.682 80.7546L168.484 81.5561L167.64 82.3998L167.71 82.4702C168.111 82.3225 168.523 82.2944 168.948 82.3858C169.374 82.4748 169.791 82.7233 170.199 83.1311C170.565 83.4967 170.81 83.8916 170.934 84.3158C171.06 84.7376 171.049 85.1759 170.899 85.6305C170.751 86.0829 170.447 86.5387 169.988 86.998L166.557 90.4291L165.727 89.5995L169.102 86.2246C169.526 85.8005 169.747 85.3598 169.763 84.9028C169.782 84.4435 169.599 84.0216 169.215 83.6373C168.95 83.3724 168.656 83.1932 168.332 83.0994C168.011 83.008 167.681 83.0127 167.341 83.1135C167.001 83.2143 166.674 83.4217 166.36 83.7357ZM170.225 94.3216C169.704 93.8013 169.37 93.2377 169.223 92.6307C169.08 92.0237 169.114 91.4108 169.325 90.7921C169.54 90.1734 169.925 89.5875 170.478 89.0344C171.031 88.4813 171.619 88.0946 172.242 87.8743C172.87 87.654 173.485 87.6071 174.085 87.7337C174.689 87.8602 175.235 88.1672 175.723 88.6547C176.004 88.9359 176.235 89.2605 176.415 89.6285C176.596 89.9964 176.693 90.3984 176.707 90.8343C176.723 91.2678 176.626 91.7237 176.415 92.2018C176.204 92.6799 175.847 93.1709 175.343 93.6748L174.991 94.0263L170.829 89.864L171.546 89.1469L174.865 92.4654C175.17 92.1608 175.381 91.828 175.498 91.4671C175.617 91.1085 175.635 90.7487 175.55 90.3878C175.468 90.0292 175.277 89.7 174.977 89.4C174.647 89.0695 174.279 88.8656 173.874 88.7883C173.473 88.7109 173.078 88.7379 172.689 88.8691C172.3 89.0004 171.956 89.2148 171.659 89.5125L171.181 89.9906C170.773 90.3984 170.498 90.8144 170.355 91.2386C170.216 91.6627 170.2 92.0752 170.305 92.476C170.413 92.8744 170.635 93.2412 170.97 93.5763C171.188 93.7943 171.415 93.9607 171.652 94.0755C171.893 94.1904 172.14 94.2501 172.394 94.2548C172.649 94.2571 172.906 94.1997 173.163 94.0825L173.74 95.1091C173.384 95.2965 173.003 95.3938 172.597 95.4008C172.194 95.4055 171.789 95.3188 171.381 95.1407C170.976 94.9602 170.59 94.6872 170.225 94.3216ZM181.85 97.3414L180.894 96.807C180.971 96.6359 181.023 96.4461 181.049 96.2375C181.079 96.0289 181.056 95.8086 180.978 95.5766C180.901 95.3446 180.742 95.1079 180.5 94.8665C180.17 94.536 179.818 94.3368 179.446 94.2689C179.078 94.2009 178.778 94.2829 178.546 94.5149C178.339 94.7212 178.251 94.9591 178.282 95.2286C178.312 95.4981 178.447 95.8321 178.686 96.2305L179.291 97.2289C179.656 97.8288 179.837 98.3679 179.832 98.846C179.83 99.3217 179.64 99.7483 179.263 100.126C178.953 100.435 178.588 100.622 178.166 100.688C177.746 100.756 177.308 100.702 176.851 100.526C176.394 100.351 175.956 100.053 175.536 99.6334C174.986 99.0827 174.649 98.5073 174.527 97.9074C174.406 97.3074 174.526 96.7297 174.89 96.1742L175.874 96.7648C175.658 97.1304 175.582 97.4902 175.645 97.8441C175.711 98.2003 175.914 98.5483 176.254 98.8882C176.64 99.2749 177.029 99.4998 177.421 99.5631C177.817 99.6264 178.131 99.542 178.363 99.31C178.55 99.1225 178.642 98.8999 178.637 98.6421C178.635 98.3819 178.529 98.0843 178.321 97.7492L177.632 96.6383C177.254 96.0266 177.073 95.4817 177.087 95.0036C177.105 94.5255 177.301 94.1001 177.674 93.7275C177.978 93.4228 178.334 93.2388 178.739 93.1756C179.147 93.1146 179.566 93.1662 179.997 93.3302C180.431 93.4966 180.838 93.7697 181.217 94.1493C181.752 94.6837 182.054 95.2204 182.124 95.7594C182.197 96.3008 182.106 96.8281 181.85 97.3414ZM187.022 102.513L186.066 101.979C186.143 101.808 186.195 101.618 186.221 101.41C186.251 101.201 186.228 100.981 186.15 100.749C186.073 100.517 185.914 100.28 185.672 100.039C185.342 99.7081 184.99 99.5089 184.618 99.441C184.25 99.373 183.95 99.455 183.718 99.687C183.511 99.8933 183.424 100.131 183.454 100.401C183.485 100.67 183.619 101.004 183.858 101.403L184.463 102.401C184.829 103.001 185.009 103.54 185.004 104.018C185.002 104.494 184.812 104.92 184.435 105.298C184.125 105.607 183.76 105.795 183.338 105.86C182.919 105.928 182.48 105.874 182.023 105.698C181.566 105.523 181.128 105.225 180.708 104.806C180.158 104.255 179.821 103.679 179.7 103.079C179.578 102.479 179.698 101.902 180.062 101.346L181.046 101.937C180.83 102.303 180.754 102.662 180.817 103.016C180.883 103.372 181.086 103.72 181.426 104.06C181.812 104.447 182.201 104.672 182.593 104.735C182.989 104.799 183.303 104.714 183.535 104.482C183.722 104.295 183.814 104.072 183.809 103.814C183.807 103.554 183.701 103.256 183.493 102.921L182.804 101.81C182.426 101.199 182.245 100.654 182.259 100.176C182.278 99.6976 182.473 99.2722 182.846 98.8996C183.151 98.5949 183.506 98.4109 183.911 98.3477C184.319 98.2867 184.738 98.3383 185.17 98.5023C185.603 98.6687 186.01 98.9418 186.389 99.3214C186.924 99.8558 187.226 100.392 187.296 100.932C187.369 101.473 187.278 102 187.022 102.513Z" fill="white"/>
<path d="M68.6402 110.689L61.4406 103.49L63.9576 100.973C64.4592 100.471 64.9596 100.144 65.4587 99.9917C65.9556 99.8371 66.429 99.8253 66.879 99.9566C67.3266 100.085 67.7262 100.326 68.0778 100.677C68.3871 100.987 68.5875 101.297 68.6789 101.609C68.7726 101.918 68.789 102.221 68.7281 102.516C68.6695 102.809 68.5652 103.087 68.4152 103.349L68.4855 103.419C68.7199 103.213 69.0187 103.069 69.382 102.987C69.7452 102.905 70.1331 102.92 70.5456 103.033C70.9581 103.145 71.3541 103.391 71.7338 103.771C72.0947 104.132 72.3373 104.538 72.4615 104.991C72.5857 105.443 72.5553 105.93 72.3701 106.453C72.185 106.976 71.8088 107.521 71.2417 108.088L68.6402 110.689ZM68.7387 109.044L70.4683 107.314C71.0378 106.745 71.3319 106.23 71.3506 105.771C71.3694 105.307 71.2206 104.917 70.9042 104.6C70.6604 104.357 70.3733 104.194 70.0429 104.112C69.7101 104.027 69.3667 104.038 69.0129 104.143C68.6566 104.247 68.3215 104.455 68.0074 104.769L66.2357 106.541L68.7387 109.044ZM65.4763 105.782L67.0934 104.165C67.3559 103.902 67.5411 103.614 67.6489 103.3C67.759 102.983 67.7825 102.669 67.7192 102.358C67.6582 102.044 67.5012 101.76 67.2481 101.507C66.9317 101.191 66.5532 101.032 66.1126 101.032C65.6697 101.03 65.2091 101.268 64.731 101.746L63.0858 103.391L65.4763 105.782ZM76.1615 98.7525L72.9695 95.5605L73.7991 94.7309L79.1989 100.131L78.3692 100.96L77.4552 100.046L77.399 100.102C77.5466 100.503 77.5829 100.933 77.5079 101.393C77.4306 101.85 77.188 102.282 76.7802 102.69C76.4428 103.027 76.0689 103.253 75.6588 103.368C75.2463 103.481 74.8151 103.462 74.3651 103.312C73.9128 103.16 73.457 102.854 72.9976 102.395L69.5665 98.9635L70.3962 98.1338L73.771 101.509C74.1647 101.902 74.5889 102.106 75.0436 102.12C75.5006 102.132 75.9014 101.966 76.2459 101.621C76.4521 101.415 76.6092 101.152 76.717 100.834C76.8271 100.513 76.8459 100.17 76.7732 99.8072C76.7029 99.4416 76.499 99.09 76.1615 98.7525ZM80.3528 90.5958L79.8185 91.552C79.6474 91.4747 79.4575 91.4231 79.249 91.3974C79.0404 91.3669 78.8201 91.3903 78.5881 91.4677C78.356 91.545 78.1193 91.7044 77.8779 91.9458C77.5475 92.2762 77.3483 92.6278 77.2803 93.0004C77.2123 93.3683 77.2944 93.6683 77.5264 93.9004C77.7326 94.1066 77.9705 94.1945 78.24 94.164C78.5095 94.1335 78.8435 93.9988 79.2419 93.7597L80.2403 93.1551C80.8403 92.7895 81.3793 92.609 81.8574 92.6137C82.3332 92.616 82.7597 92.8059 83.137 93.1832C83.4464 93.4926 83.6339 93.8582 83.6995 94.28C83.7675 94.6995 83.7136 95.1378 83.5378 95.5948C83.362 96.0518 83.0644 96.4901 82.6449 96.9096C82.0941 97.4603 81.5188 97.7966 80.9188 97.9185C80.3188 98.0404 79.7411 97.9197 79.1857 97.5564L79.7763 96.5721C80.1419 96.7877 80.5016 96.8639 80.8555 96.8006C81.2117 96.735 81.5598 96.5322 81.8996 96.1924C82.2863 95.8057 82.5113 95.4167 82.5746 95.0253C82.6378 94.6292 82.5535 94.3152 82.3215 94.0832C82.134 93.8957 81.9113 93.8043 81.6535 93.8089C81.3934 93.8113 81.0957 93.9168 80.7606 94.1253L79.6497 94.8144C79.038 95.1917 78.4931 95.3733 78.015 95.3593C77.5369 95.3405 77.1116 95.1448 76.7389 94.7722C76.4343 94.4675 76.2503 94.1124 76.187 93.707C76.1261 93.2992 76.1776 92.8797 76.3417 92.4485C76.5081 92.0149 76.7811 91.6083 77.1608 91.2286C77.6951 90.6943 78.2318 90.3919 78.7709 90.3216C79.3122 90.249 79.8396 90.3404 80.3528 90.5958ZM85.8905 93.4389L80.4908 88.0392L81.3204 87.2096L86.7202 92.6093L85.8905 93.4389ZM80.0127 86.7174C79.851 86.8791 79.6565 86.9635 79.4291 86.9705C79.2041 86.9752 79.0143 86.9002 78.8596 86.7455C78.7049 86.5909 78.6299 86.401 78.6346 86.176C78.6417 85.9487 78.726 85.7542 78.8877 85.5925C79.0495 85.4308 79.2428 85.3476 79.4678 85.3429C79.6951 85.3358 79.8861 85.4097 80.0408 85.5643C80.1955 85.719 80.2693 85.91 80.2623 86.1374C80.2576 86.3624 80.1744 86.5557 80.0127 86.7174ZM85.8211 87.0118L89.0694 90.2601L88.2397 91.0898L82.84 85.69L83.6415 84.8885L84.4852 85.7322L84.5555 85.6619C84.4079 85.2611 84.3798 84.8487 84.4712 84.4245C84.5602 83.9979 84.8086 83.5808 85.2164 83.173C85.582 82.8074 85.9769 82.5625 86.4011 82.4382C86.823 82.3117 87.2612 82.3234 87.7159 82.4734C88.1682 82.621 88.6241 82.9245 89.0834 83.3839L92.5145 86.815L91.6848 87.6446L88.31 84.2698C87.8858 83.8456 87.4452 83.6253 86.9882 83.6089C86.5289 83.5901 86.107 83.7729 85.7227 84.1573C85.4578 84.4221 85.2785 84.7162 85.1848 85.0397C85.0934 85.3607 85.0981 85.6912 85.1988 86.031C85.2996 86.3709 85.507 86.6978 85.8211 87.0118ZM96.407 83.1475C95.8867 83.6678 95.323 84.0017 94.716 84.1494C94.109 84.2923 93.4962 84.2584 92.8775 84.0474C92.2587 83.8318 91.6728 83.4475 91.1197 82.8944C90.5666 82.3413 90.1799 81.753 89.9596 81.1296C89.7393 80.5015 89.6925 79.8875 89.819 79.2875C89.9456 78.6829 90.2526 78.1368 90.7401 77.6493C91.0213 77.3681 91.3459 77.1372 91.7138 76.9568C92.0818 76.7763 92.4837 76.6791 92.9196 76.665C93.3532 76.6486 93.8091 76.7459 94.2872 76.9568C94.7653 77.1677 95.2562 77.5251 95.7601 78.029L96.1117 78.3805L91.9494 82.5428L91.2322 81.8257L94.5508 78.5071C94.2461 78.2024 93.9133 77.9915 93.5524 77.8743C93.1939 77.7548 92.8341 77.7372 92.4732 77.8216C92.1146 77.9036 91.7853 78.0946 91.4853 78.3946C91.1549 78.7251 90.951 79.093 90.8737 79.4984C90.7963 79.8992 90.8233 80.2941 90.9545 80.6832C91.0858 81.0722 91.3002 81.4155 91.5978 81.7132L92.0759 82.1913C92.4837 82.5991 92.8997 82.8744 93.3239 83.0174C93.7481 83.1557 94.1606 83.1721 94.5614 83.0666C94.9598 82.9588 95.3266 82.7373 95.6617 82.4022C95.8797 82.1842 96.046 81.9569 96.1609 81.7202C96.2757 81.4788 96.3355 81.2316 96.3402 80.9785C96.3425 80.723 96.2851 80.4664 96.1679 80.2086L97.1944 79.632C97.3819 79.9883 97.4792 80.3691 97.4862 80.7746C97.4909 81.1777 97.4042 81.5831 97.2261 81.9909C97.0456 82.3963 96.7726 82.7819 96.407 83.1475ZM99.4267 71.5219L98.8924 72.4781C98.7213 72.4008 98.5315 72.3492 98.3229 72.3234C98.1143 72.293 97.894 72.3164 97.662 72.3937C97.43 72.4711 97.1933 72.6304 96.9519 72.8718C96.6214 73.2023 96.4222 73.5538 96.3542 73.9265C96.2863 74.2944 96.3683 74.5944 96.6003 74.8264C96.8066 75.0327 97.0444 75.1205 97.314 75.0901C97.5835 75.0596 97.9174 74.9249 98.3159 74.6858L99.3142 74.0811C99.9142 73.7155 100.453 73.5351 100.931 73.5398C101.407 73.5421 101.834 73.7319 102.211 74.1093C102.52 74.4186 102.708 74.7842 102.773 75.2061C102.841 75.6256 102.788 76.0639 102.612 76.5209C102.436 76.9779 102.138 77.4161 101.719 77.8356C101.168 78.3864 100.593 78.7227 99.9927 78.8446C99.3928 78.9664 98.815 78.8457 98.2596 78.4825L98.8502 77.4982C99.2158 77.7138 99.5756 77.7899 99.9294 77.7267C100.286 77.661 100.634 77.4583 100.974 77.1185C101.36 76.7318 101.585 76.3428 101.648 75.9514C101.712 75.5553 101.627 75.2412 101.395 75.0092C101.208 74.8217 100.985 74.7303 100.727 74.735C100.467 74.7374 100.17 74.8428 99.8345 75.0514L98.7236 75.7404C98.112 76.1178 97.5671 76.2994 97.089 76.2853C96.6109 76.2666 96.1855 76.0709 95.8129 75.6983C95.5082 75.3936 95.3242 75.0385 95.2609 74.6331C95.2 74.2253 95.2516 73.8058 95.4156 73.3745C95.582 72.941 95.855 72.5344 96.2347 72.1547C96.7691 71.6203 97.3058 71.318 97.8448 71.2477C98.3862 71.175 98.9135 71.2664 99.4267 71.5219ZM104.599 66.3498L104.064 67.306C103.893 67.2287 103.704 67.1771 103.495 67.1513C103.286 67.1209 103.066 67.1443 102.834 67.2216C102.602 67.299 102.365 67.4583 102.124 67.6997C101.794 68.0302 101.594 68.3817 101.526 68.7544C101.458 69.1223 101.54 69.4223 101.772 69.6543C101.979 69.8606 102.217 69.9484 102.486 69.918C102.756 69.8875 103.09 69.7528 103.488 69.5137L104.486 68.909C105.086 68.5434 105.625 68.363 106.103 68.3677C106.579 68.37 107.006 68.5598 107.383 68.9372C107.692 69.2465 107.88 69.6121 107.946 70.034C108.014 70.4535 107.96 70.8918 107.784 71.3488C107.608 71.8058 107.31 72.244 106.891 72.6635C106.34 73.2143 105.765 73.5506 105.165 73.6725C104.565 73.7943 103.987 73.6736 103.432 73.3104L104.022 72.3261C104.388 72.5417 104.748 72.6178 105.102 72.5546C105.458 72.4889 105.806 72.2862 106.146 71.9464C106.532 71.5597 106.757 71.1707 106.821 70.7793C106.884 70.3832 106.8 70.0691 106.567 69.8371C106.38 69.6496 106.157 69.5582 105.9 69.5629C105.639 69.5653 105.342 69.6707 105.007 69.8793L103.896 70.5683C103.284 70.9457 102.739 71.1273 102.261 71.1132C101.783 71.0945 101.358 70.8988 100.985 70.5262C100.68 70.2215 100.496 69.8664 100.433 69.461C100.372 69.0532 100.424 68.6337 100.588 68.2024C100.754 67.7689 101.027 67.3623 101.407 66.9826C101.941 66.4482 102.478 66.1459 103.017 66.0756C103.558 66.0029 104.086 66.0943 104.599 66.3498Z" fill="white"/>
<path d="M177.954 134.863L185.154 142.062L182.637 144.579C182.135 145.081 181.635 145.408 181.136 145.56C180.639 145.715 180.165 145.726 179.715 145.595C179.268 145.466 178.868 145.226 178.517 144.875C178.207 144.565 178.007 144.255 177.916 143.943C177.822 143.634 177.805 143.331 177.866 143.036C177.925 142.743 178.029 142.465 178.179 142.203L178.109 142.133C177.875 142.339 177.576 142.483 177.213 142.565C176.849 142.647 176.461 142.632 176.049 142.519C175.636 142.407 175.24 142.161 174.861 141.781C174.5 141.42 174.257 141.013 174.133 140.561C174.009 140.109 174.039 139.621 174.224 139.099C174.41 138.576 174.786 138.031 175.353 137.464L177.954 134.863ZM177.856 136.508L176.126 138.237C175.557 138.807 175.263 139.321 175.244 139.781C175.225 140.245 175.374 140.635 175.69 140.951C175.934 141.195 176.221 141.358 176.552 141.44C176.884 141.524 177.228 141.514 177.582 141.408C177.938 141.305 178.273 141.097 178.587 140.783L180.359 139.011L177.856 136.508ZM181.118 139.77L179.501 141.387C179.239 141.65 179.053 141.938 178.946 142.252C178.835 142.568 178.812 142.882 178.875 143.194C178.936 143.508 179.093 143.792 179.346 144.045C179.663 144.361 180.041 144.519 180.482 144.519C180.925 144.522 181.385 144.284 181.863 143.806L183.509 142.161L181.118 139.77ZM170.433 146.799L173.625 149.991L172.795 150.821L167.396 145.421L168.225 144.592L169.139 145.506L169.196 145.449C169.048 145.049 169.012 144.619 169.087 144.159C169.164 143.702 169.406 143.27 169.814 142.862C170.152 142.524 170.526 142.298 170.936 142.183C171.348 142.071 171.779 142.09 172.229 142.24C172.682 142.392 173.138 142.698 173.597 143.157L177.028 146.588L176.198 147.418L172.823 144.043C172.43 143.649 172.006 143.446 171.551 143.431C171.094 143.42 170.693 143.586 170.349 143.931C170.142 144.137 169.985 144.399 169.878 144.718C169.767 145.039 169.749 145.381 169.821 145.745C169.892 146.11 170.095 146.462 170.433 146.799ZM166.242 154.956L166.776 154C166.947 154.077 167.137 154.129 167.346 154.154C167.554 154.185 167.774 154.161 168.006 154.084C168.238 154.007 168.475 153.847 168.717 153.606C169.047 153.276 169.246 152.924 169.314 152.551C169.382 152.183 169.3 151.883 169.068 151.651C168.862 151.445 168.624 151.357 168.354 151.388C168.085 151.418 167.751 151.553 167.353 151.792L166.354 152.397C165.754 152.762 165.215 152.943 164.737 152.938C164.261 152.936 163.835 152.746 163.457 152.369C163.148 152.059 162.961 151.694 162.895 151.272C162.827 150.852 162.881 150.414 163.057 149.957C163.232 149.5 163.53 149.062 163.95 148.642C164.5 148.091 165.076 147.755 165.676 147.633C166.276 147.511 166.853 147.632 167.409 147.995L166.818 148.98C166.453 148.764 166.093 148.688 165.739 148.751C165.383 148.817 165.035 149.02 164.695 149.359C164.308 149.746 164.083 150.135 164.02 150.527C163.957 150.923 164.041 151.237 164.273 151.469C164.461 151.656 164.683 151.748 164.941 151.743C165.201 151.741 165.499 151.635 165.834 151.426L166.945 150.737C167.556 150.36 168.101 150.178 168.579 150.193C169.058 150.211 169.483 150.407 169.856 150.78C170.16 151.084 170.344 151.439 170.407 151.845C170.468 152.253 170.417 152.672 170.253 153.103C170.086 153.537 169.813 153.944 169.434 154.323C168.899 154.858 168.363 155.16 167.824 155.23C167.282 155.303 166.755 155.211 166.242 154.956ZM160.704 152.113L166.104 157.513L165.274 158.342L159.874 152.942L160.704 152.113ZM166.582 158.834C166.744 158.673 166.938 158.588 167.165 158.581C167.39 158.577 167.58 158.652 167.735 158.806C167.89 158.961 167.965 159.151 167.96 159.376C167.953 159.603 167.868 159.798 167.707 159.959C167.545 160.121 167.352 160.204 167.127 160.209C166.899 160.216 166.708 160.142 166.554 159.987C166.399 159.833 166.325 159.642 166.332 159.414C166.337 159.189 166.42 158.996 166.582 158.834ZM160.773 158.54L157.525 155.292L158.355 154.462L163.754 159.862L162.953 160.663L162.109 159.82L162.039 159.89C162.187 160.291 162.215 160.703 162.123 161.127C162.034 161.554 161.786 161.971 161.378 162.379C161.012 162.744 160.618 162.989 160.193 163.114C159.771 163.24 159.333 163.228 158.879 163.078C158.426 162.931 157.97 162.627 157.511 162.168L154.08 158.737L154.91 157.907L158.284 161.282C158.709 161.706 159.149 161.927 159.606 161.943C160.066 161.962 160.487 161.779 160.872 161.395C161.137 161.13 161.316 160.836 161.41 160.512C161.501 160.191 161.496 159.861 161.396 159.521C161.295 159.181 161.087 158.854 160.773 158.54ZM150.188 162.404C150.708 161.884 151.271 161.55 151.878 161.402C152.485 161.259 153.098 161.293 153.717 161.504C154.336 161.72 154.922 162.104 155.475 162.657C156.028 163.211 156.415 163.799 156.635 164.422C156.855 165.05 156.902 165.664 156.775 166.264C156.649 166.869 156.342 167.415 155.854 167.902C155.573 168.184 155.249 168.415 154.881 168.595C154.513 168.775 154.111 168.873 153.675 168.887C153.241 168.903 152.785 168.806 152.307 168.595C151.829 168.384 151.338 168.027 150.834 167.523L150.483 167.171L154.645 163.009L155.362 163.726L152.044 167.045C152.348 167.349 152.681 167.56 153.042 167.677C153.401 167.797 153.76 167.815 154.121 167.73C154.48 167.648 154.809 167.457 155.109 167.157C155.44 166.827 155.643 166.459 155.721 166.053C155.798 165.653 155.771 165.258 155.64 164.869C155.509 164.48 155.294 164.136 154.997 163.839L154.519 163.361C154.111 162.953 153.695 162.677 153.271 162.534C152.846 162.396 152.434 162.38 152.033 162.485C151.635 162.593 151.268 162.814 150.933 163.15C150.715 163.368 150.548 163.595 150.434 163.832C150.319 164.073 150.259 164.32 150.254 164.573C150.252 164.829 150.309 165.085 150.427 165.343L149.4 165.92C149.213 165.564 149.115 165.183 149.108 164.777C149.104 164.374 149.19 163.969 149.368 163.561C149.549 163.155 149.822 162.77 150.188 162.404ZM147.168 174.03L147.702 173.074C147.873 173.151 148.063 173.203 148.272 173.228C148.48 173.259 148.7 173.235 148.932 173.158C149.165 173.081 149.401 172.921 149.643 172.68C149.973 172.35 150.172 171.998 150.24 171.625C150.308 171.257 150.226 170.957 149.994 170.725C149.788 170.519 149.55 170.431 149.281 170.462C149.011 170.492 148.677 170.627 148.279 170.866L147.28 171.471C146.68 171.836 146.141 172.017 145.663 172.012C145.187 172.01 144.761 171.82 144.384 171.443C144.074 171.133 143.887 170.768 143.821 170.346C143.753 169.926 143.807 169.488 143.983 169.031C144.159 168.574 144.456 168.136 144.876 167.716C145.426 167.165 146.002 166.829 146.602 166.707C147.202 166.585 147.779 166.706 148.335 167.069L147.744 168.054C147.379 167.838 147.019 167.762 146.665 167.825C146.309 167.891 145.961 168.093 145.621 168.433C145.234 168.82 145.009 169.209 144.946 169.6C144.883 169.997 144.967 170.311 145.199 170.543C145.387 170.73 145.609 170.821 145.867 170.817C146.127 170.814 146.425 170.709 146.76 170.5L147.871 169.811C148.483 169.434 149.027 169.252 149.506 169.266C149.984 169.285 150.409 169.481 150.782 169.854C151.086 170.158 151.27 170.513 151.334 170.919C151.394 171.327 151.343 171.746 151.179 172.177C151.012 172.611 150.739 173.017 150.36 173.397C149.825 173.931 149.289 174.234 148.75 174.304C148.208 174.377 147.681 174.285 147.168 174.03ZM141.996 179.202L142.53 178.246C142.701 178.323 142.891 178.375 143.099 178.4C143.308 178.431 143.528 178.408 143.76 178.33C143.992 178.253 144.229 178.093 144.471 177.852C144.801 177.522 145 177.17 145.068 176.797C145.136 176.429 145.054 176.129 144.822 175.897C144.616 175.691 144.378 175.603 144.108 175.634C143.839 175.664 143.505 175.799 143.107 176.038L142.108 176.643C141.508 177.008 140.969 177.189 140.491 177.184C140.015 177.182 139.589 176.992 139.211 176.615C138.902 176.305 138.715 175.94 138.649 175.518C138.581 175.098 138.635 174.66 138.811 174.203C138.986 173.746 139.284 173.308 139.704 172.888C140.254 172.338 140.83 172.001 141.43 171.879C142.03 171.757 142.607 171.878 143.163 172.241L142.572 173.226C142.207 173.01 141.847 172.934 141.493 172.997C141.137 173.063 140.789 173.266 140.449 173.605C140.062 173.992 139.837 174.381 139.774 174.773C139.711 175.169 139.795 175.483 140.027 175.715C140.214 175.902 140.437 175.994 140.695 175.989C140.955 175.987 141.253 175.881 141.588 175.672L142.699 174.983C143.31 174.606 143.855 174.425 144.333 174.439C144.812 174.457 145.237 174.653 145.61 175.026C145.914 175.33 146.098 175.685 146.161 176.091C146.222 176.499 146.171 176.918 146.007 177.349C145.84 177.783 145.567 178.19 145.188 178.569C144.653 179.104 144.117 179.406 143.578 179.476C143.036 179.549 142.509 179.457 141.996 179.202Z" fill="white"/>
<path d="M120.43 49.5274L123.383 50.4909L124.544 47.6092L126.187 50.2456L128.928 48.7839L128.492 51.8598L131.531 52.5021L129.22 54.5781L131.136 57.0238L128.031 57.1286L127.926 60.2334L125.481 58.3179L123.405 60.629L122.762 57.5895L119.686 58.0255L121.148 55.2843L118.512 53.6412L121.393 52.4808L120.43 49.5274Z" fill="white"/>
<path d="M187.162 116.259L190.115 117.223L191.275 114.341L192.918 116.977L195.66 115.516L195.224 118.591L198.263 119.234L195.952 121.31L197.868 123.756L194.763 123.86L194.658 126.965L192.212 125.05L190.136 127.361L189.494 124.321L186.418 124.757L187.88 122.016L185.243 120.373L188.125 119.213L187.162 116.259Z" fill="white"/>
<path d="M51.0915 118.866L54.0449 119.829L55.2052 116.948L56.8484 119.584L59.5896 118.122L59.1536 121.198L62.1931 121.84L59.882 123.916L61.7974 126.362L58.6926 126.467L58.5879 129.572L56.1421 127.656L54.0661 129.967L53.4238 126.928L50.348 127.364L51.8097 124.623L49.1732 122.98L52.0549 121.819L51.0915 118.866Z" fill="white"/>
</svg>
