
<svg xmlns="http://www.w3.org/2000/svg" fill="#fff" viewBox="0 0 708.18 611.73">
  <g id="Layer_2" data-name="Layer 2">
    <g id="Layer_1-2" data-name="Layer 1">
      <path
        d="M0,611.73c12.39-13.11,24.21-25.46,35.85-38Q101,503.68,166.15,433.52,201.91,395.11,238,357a58.38,58.38,0,0,0,13.87-23.77q42.65-139.83,85.75-279.54c5.48-17.75,9.67-35.89,16.57-53.64,3.63,6.27,5.07,13.05,7.06,19.56q45.3,148,90.39,296c1.89,6.18,4.13,12.26,5.68,18.53,2.13,8.66,6.77,15.5,12.84,22Q540,430.61,609.6,505.49q41.25,44.24,82.49,88.46c5.32,5.68,11.11,10.91,16.09,17.63-8.48-.53-16-3-23.74-4.79Q626,593.26,567.56,579.72L392,539.14q-16-3.69-32-7.42a23.54,23.54,0,0,0-10.85-.06Q216.77,562.34,84.42,593q-37.08,8.58-74.18,17C7.21,610.7,4.1,611.05,0,611.73Zm5.09-1.68c3.85-1.37,7.76-2.61,11.56-4.14Q66,586.1,115.37,566.18q117.24-47.41,234.45-94.94a10.5,10.5,0,0,1,8.56-.19Q473,517.76,587.77,564.25c35.07,14.2,70.26,28.11,105.42,42.07,3.48,1.38,7.17,2.25,10.77,3.36a48.47,48.47,0,0,0-9-9q-47.13-37-94.33-74Q506.56,453.11,412.4,379.71c-2.47-1.93-4.25-3.95-4.69-7.21-1.94-14.32-4.06-28.62-6-42.94-4.45-32.11-8.8-64.24-13.29-96.35-4.83-34.56-9.81-69.1-14.68-103.66-5.12-36.39-10.07-72.79-15.38-109.15-.71-4.88-.87-10.17-3.89-14.8a7.68,7.68,0,0,0-2,4.33c-2.29,14.44-4.76,28.86-6.79,43.34C341,86,336.75,118.83,332.18,151.59c-5.81,41.65-11.81,83.27-17.68,124.92q-6.62,46.9-13.14,93.83a13.16,13.16,0,0,1-5.06,9.27q-57.56,44.77-114.9,89.78-81.86,64-163.73,127.89C13.05,600.9,8.26,604.42,5.09,610.05Z" />
    </g>
  </g>
</svg>